<svg xmlns="http://www.w3.org/2000/svg" xmlns:xlink="http://www.w3.org/1999/xlink" width="500" zoomAndPan="magnify" viewBox="0 0 375 374.999991" height="500" preserveAspectRatio="xMidYMid meet" version="1.0"><defs><g/><clipPath id="e5679a4c4d"><path d="M 95.269531 203.292969 L 279.769531 203.292969 L 279.769531 210.792969 L 95.269531 210.792969 Z M 95.269531 203.292969 " clip-rule="nonzero"/></clipPath></defs><rect x="-37.5" width="450" fill="#ffffff" y="-37.499999" height="449.999989" fill-opacity="1"/><rect x="-37.5" width="450" fill="#ffffff" y="-37.499999" height="449.999989" fill-opacity="1"/><rect x="-37.5" width="450" fill="#ffffff" y="-37.499999" height="449.999989" fill-opacity="1"/><g fill="#0057ff" fill-opacity="0.302"><g transform="translate(109.974701, 203.15505)"><g><path d="M 2.03125 -30.578125 C 2.03125 -31.960938 2.476562 -33.113281 3.375 -34.03125 C 4.28125 -34.945312 5.363281 -35.40625 6.625 -35.40625 L 13 -35.40625 C 14.25 -35.40625 15.320312 -34.9375 16.21875 -34 C 17.125 -33.070312 17.578125 -31.929688 17.578125 -30.578125 L 17.578125 -29.046875 L 11.96875 -26.234375 L 11.96875 -30.0625 L 7.640625 -30.0625 L 7.640625 -20.640625 L 17.578125 -25.734375 L 17.578125 -4.84375 C 17.578125 -3.519531 17.125 -2.378906 16.21875 -1.421875 C 15.320312 -0.472656 14.25 0 13 0 L 6.625 0 C 5.363281 0 4.28125 -0.460938 3.375 -1.390625 C 2.476562 -2.328125 2.03125 -3.476562 2.03125 -4.84375 L 2.03125 -8.15625 L 7.640625 -10.953125 L 7.640625 -5.34375 L 11.96875 -5.34375 L 11.96875 -16.5625 L 2.03125 -11.46875 Z M 2.03125 -30.578125 "/></g></g></g><g fill="#0057ff" fill-opacity="0.302"><g transform="translate(129.591681, 203.15505)"><g><path d="M 6.375 0 L 6.375 -30.0625 L 0.765625 -30.0625 L 0.765625 -35.40625 L 17.578125 -35.40625 L 17.578125 -30.0625 L 11.96875 -30.0625 L 11.96875 0 Z M 6.375 0 "/></g></g></g><g fill="#0057ff" fill-opacity="0.302"><g transform="translate(147.934831, 203.15505)"><g><path d="M 15.546875 -30.0625 L 7.640625 -30.0625 L 7.640625 -20.53125 L 15.546875 -24.609375 L 15.546875 -18.34375 L 7.640625 -14.265625 L 7.640625 -5.34375 L 15.546875 -5.34375 L 15.546875 0 L 2.03125 0 L 2.03125 -30.578125 C 2.03125 -31.929688 2.476562 -33.070312 3.375 -34 C 4.28125 -34.9375 5.363281 -35.40625 6.625 -35.40625 L 15.546875 -35.40625 Z M 15.546875 -30.0625 "/></g></g></g><g fill="#0057ff" fill-opacity="0.302"><g transform="translate(165.00415, 203.15505)"><g><path d="M 11.96875 -9.6875 L 17.578125 -12.484375 L 17.578125 -4.84375 C 17.578125 -3.476562 17.125 -2.328125 16.21875 -1.390625 C 15.320312 -0.460938 14.25 0 13 0 L 6.625 0 C 5.363281 0 4.28125 -0.472656 3.375 -1.421875 C 2.476562 -2.378906 2.03125 -3.519531 2.03125 -4.84375 L 2.03125 -30.578125 C 2.03125 -31.929688 2.476562 -33.070312 3.375 -34 C 4.28125 -34.9375 5.363281 -35.40625 6.625 -35.40625 L 13 -35.40625 C 14.25 -35.40625 15.320312 -34.9375 16.21875 -34 C 17.125 -33.070312 17.578125 -31.929688 17.578125 -30.578125 L 17.578125 -27.515625 L 11.96875 -24.71875 L 11.96875 -30.0625 L 7.640625 -30.0625 L 7.640625 -5.34375 L 11.96875 -5.34375 Z M 11.96875 -9.6875 "/></g></g></g><g fill="#0057ff" fill-opacity="0.302"><g transform="translate(184.111605, 203.15505)"><g><path d="M 11.96875 -9.6875 L 17.578125 -12.484375 L 17.578125 -4.84375 C 17.578125 -3.476562 17.125 -2.328125 16.21875 -1.390625 C 15.320312 -0.460938 14.25 0 13 0 L 6.625 0 C 5.363281 0 4.28125 -0.472656 3.375 -1.421875 C 2.476562 -2.378906 2.03125 -3.519531 2.03125 -4.84375 L 2.03125 -30.578125 C 2.03125 -31.929688 2.476562 -33.070312 3.375 -34 C 4.28125 -34.9375 5.363281 -35.40625 6.625 -35.40625 L 13 -35.40625 C 14.25 -35.40625 15.320312 -34.9375 16.21875 -34 C 17.125 -33.070312 17.578125 -31.929688 17.578125 -30.578125 L 17.578125 -27.515625 L 11.96875 -24.71875 L 11.96875 -30.0625 L 7.640625 -30.0625 L 7.640625 -5.34375 L 11.96875 -5.34375 Z M 11.96875 -9.6875 "/></g></g></g><g fill="#0057ff" fill-opacity="0.302"><g transform="translate(203.21906, 203.15505)"><g><path d="M 11.96875 -16.359375 L 7.640625 -14.0625 L 7.640625 0 L 2.03125 0 L 2.03125 -35.40625 L 7.640625 -35.40625 L 7.640625 -20.328125 L 11.96875 -22.625 L 11.96875 -35.40625 L 17.578125 -35.40625 L 17.578125 0 L 11.96875 0 Z M 11.96875 -16.359375 "/></g></g></g><g fill="#0057ff" fill-opacity="0.302"><g transform="translate(222.83604, 203.15505)"><g><path d="M 2.03125 0 L 2.03125 -35.40625 L 7.640625 -35.40625 L 7.640625 0 Z M 2.03125 0 "/></g></g></g><g fill="#0057ff" fill-opacity="0.302"><g transform="translate(232.517146, 203.15505)"><g><path d="M 7.640625 0 L 2.03125 0 L 2.03125 -35.40625 L 7.640625 -35.40625 L 7.640625 -32.8125 C 7.847656 -33.25 8.117188 -33.65625 8.453125 -34.03125 C 9.367188 -34.945312 10.457031 -35.40625 11.71875 -35.40625 L 13 -35.40625 C 14.25 -35.40625 15.320312 -34.9375 16.21875 -34 C 17.125 -33.070312 17.578125 -31.929688 17.578125 -30.578125 L 17.578125 0 L 11.96875 0 L 11.96875 -30.0625 L 7.640625 -30.0625 Z M 7.640625 0 "/></g></g></g><g fill="#0057ff" fill-opacity="0.302"><g transform="translate(252.134126, 203.15505)"><g><path d="M 17.578125 -30.578125 L 17.578125 -4.84375 C 17.578125 -3.476562 17.125 -2.328125 16.21875 -1.390625 C 15.320312 -0.460938 14.25 0 13 0 L 6.625 0 C 5.363281 0 4.28125 -0.472656 3.375 -1.421875 C 2.476562 -2.378906 2.03125 -3.519531 2.03125 -4.84375 L 2.03125 -30.578125 C 2.03125 -31.929688 2.476562 -33.070312 3.375 -34 C 4.28125 -34.9375 5.363281 -35.40625 6.625 -35.40625 L 13 -35.40625 C 14.25 -35.40625 15.320312 -34.9375 16.21875 -34 C 17.125 -33.070312 17.578125 -31.929688 17.578125 -30.578125 Z M 11.96875 -5.34375 L 11.96875 -30.0625 L 7.640625 -30.0625 L 7.640625 -5.34375 Z M 11.96875 -5.34375 "/></g></g></g><g fill="#0057ff" fill-opacity="0.502"><g transform="translate(108.295943, 201.890027)"><g><path d="M 2.03125 -30.578125 C 2.03125 -31.960938 2.476562 -33.113281 3.375 -34.03125 C 4.28125 -34.945312 5.363281 -35.40625 6.625 -35.40625 L 13 -35.40625 C 14.25 -35.40625 15.320312 -34.9375 16.21875 -34 C 17.125 -33.070312 17.578125 -31.929688 17.578125 -30.578125 L 17.578125 -29.046875 L 11.96875 -26.234375 L 11.96875 -30.0625 L 7.640625 -30.0625 L 7.640625 -20.640625 L 17.578125 -25.734375 L 17.578125 -4.84375 C 17.578125 -3.519531 17.125 -2.378906 16.21875 -1.421875 C 15.320312 -0.472656 14.25 0 13 0 L 6.625 0 C 5.363281 0 4.28125 -0.460938 3.375 -1.390625 C 2.476562 -2.328125 2.03125 -3.476562 2.03125 -4.84375 L 2.03125 -8.15625 L 7.640625 -10.953125 L 7.640625 -5.34375 L 11.96875 -5.34375 L 11.96875 -16.5625 L 2.03125 -11.46875 Z M 2.03125 -30.578125 "/></g></g></g><g fill="#0057ff" fill-opacity="0.502"><g transform="translate(127.912923, 201.890027)"><g><path d="M 6.375 0 L 6.375 -30.0625 L 0.765625 -30.0625 L 0.765625 -35.40625 L 17.578125 -35.40625 L 17.578125 -30.0625 L 11.96875 -30.0625 L 11.96875 0 Z M 6.375 0 "/></g></g></g><g fill="#0057ff" fill-opacity="0.502"><g transform="translate(146.256073, 201.890027)"><g><path d="M 15.546875 -30.0625 L 7.640625 -30.0625 L 7.640625 -20.53125 L 15.546875 -24.609375 L 15.546875 -18.34375 L 7.640625 -14.265625 L 7.640625 -5.34375 L 15.546875 -5.34375 L 15.546875 0 L 2.03125 0 L 2.03125 -30.578125 C 2.03125 -31.929688 2.476562 -33.070312 3.375 -34 C 4.28125 -34.9375 5.363281 -35.40625 6.625 -35.40625 L 15.546875 -35.40625 Z M 15.546875 -30.0625 "/></g></g></g><g fill="#0057ff" fill-opacity="0.502"><g transform="translate(163.325393, 201.890027)"><g><path d="M 11.96875 -9.6875 L 17.578125 -12.484375 L 17.578125 -4.84375 C 17.578125 -3.476562 17.125 -2.328125 16.21875 -1.390625 C 15.320312 -0.460938 14.25 0 13 0 L 6.625 0 C 5.363281 0 4.28125 -0.472656 3.375 -1.421875 C 2.476562 -2.378906 2.03125 -3.519531 2.03125 -4.84375 L 2.03125 -30.578125 C 2.03125 -31.929688 2.476562 -33.070312 3.375 -34 C 4.28125 -34.9375 5.363281 -35.40625 6.625 -35.40625 L 13 -35.40625 C 14.25 -35.40625 15.320312 -34.9375 16.21875 -34 C 17.125 -33.070312 17.578125 -31.929688 17.578125 -30.578125 L 17.578125 -27.515625 L 11.96875 -24.71875 L 11.96875 -30.0625 L 7.640625 -30.0625 L 7.640625 -5.34375 L 11.96875 -5.34375 Z M 11.96875 -9.6875 "/></g></g></g><g fill="#0057ff" fill-opacity="0.502"><g transform="translate(182.432848, 201.890027)"><g><path d="M 11.96875 -9.6875 L 17.578125 -12.484375 L 17.578125 -4.84375 C 17.578125 -3.476562 17.125 -2.328125 16.21875 -1.390625 C 15.320312 -0.460938 14.25 0 13 0 L 6.625 0 C 5.363281 0 4.28125 -0.472656 3.375 -1.421875 C 2.476562 -2.378906 2.03125 -3.519531 2.03125 -4.84375 L 2.03125 -30.578125 C 2.03125 -31.929688 2.476562 -33.070312 3.375 -34 C 4.28125 -34.9375 5.363281 -35.40625 6.625 -35.40625 L 13 -35.40625 C 14.25 -35.40625 15.320312 -34.9375 16.21875 -34 C 17.125 -33.070312 17.578125 -31.929688 17.578125 -30.578125 L 17.578125 -27.515625 L 11.96875 -24.71875 L 11.96875 -30.0625 L 7.640625 -30.0625 L 7.640625 -5.34375 L 11.96875 -5.34375 Z M 11.96875 -9.6875 "/></g></g></g><g fill="#0057ff" fill-opacity="0.502"><g transform="translate(201.540302, 201.890027)"><g><path d="M 11.96875 -16.359375 L 7.640625 -14.0625 L 7.640625 0 L 2.03125 0 L 2.03125 -35.40625 L 7.640625 -35.40625 L 7.640625 -20.328125 L 11.96875 -22.625 L 11.96875 -35.40625 L 17.578125 -35.40625 L 17.578125 0 L 11.96875 0 Z M 11.96875 -16.359375 "/></g></g></g><g fill="#0057ff" fill-opacity="0.502"><g transform="translate(221.157282, 201.890027)"><g><path d="M 2.03125 0 L 2.03125 -35.40625 L 7.640625 -35.40625 L 7.640625 0 Z M 2.03125 0 "/></g></g></g><g fill="#0057ff" fill-opacity="0.502"><g transform="translate(230.838388, 201.890027)"><g><path d="M 7.640625 0 L 2.03125 0 L 2.03125 -35.40625 L 7.640625 -35.40625 L 7.640625 -32.8125 C 7.847656 -33.25 8.117188 -33.65625 8.453125 -34.03125 C 9.367188 -34.945312 10.457031 -35.40625 11.71875 -35.40625 L 13 -35.40625 C 14.25 -35.40625 15.320312 -34.9375 16.21875 -34 C 17.125 -33.070312 17.578125 -31.929688 17.578125 -30.578125 L 17.578125 0 L 11.96875 0 L 11.96875 -30.0625 L 7.640625 -30.0625 Z M 7.640625 0 "/></g></g></g><g fill="#0057ff" fill-opacity="0.502"><g transform="translate(250.455368, 201.890027)"><g><path d="M 17.578125 -30.578125 L 17.578125 -4.84375 C 17.578125 -3.476562 17.125 -2.328125 16.21875 -1.390625 C 15.320312 -0.460938 14.25 0 13 0 L 6.625 0 C 5.363281 0 4.28125 -0.472656 3.375 -1.421875 C 2.476562 -2.378906 2.03125 -3.519531 2.03125 -4.84375 L 2.03125 -30.578125 C 2.03125 -31.929688 2.476562 -33.070312 3.375 -34 C 4.28125 -34.9375 5.363281 -35.40625 6.625 -35.40625 L 13 -35.40625 C 14.25 -35.40625 15.320312 -34.9375 16.21875 -34 C 17.125 -33.070312 17.578125 -31.929688 17.578125 -30.578125 Z M 11.96875 -5.34375 L 11.96875 -30.0625 L 7.640625 -30.0625 L 7.640625 -5.34375 Z M 11.96875 -5.34375 "/></g></g></g><g fill="#1b1727" fill-opacity="1"><g transform="translate(106.617185, 200.624987)"><g><path d="M 2.03125 -30.578125 C 2.03125 -31.960938 2.476562 -33.113281 3.375 -34.03125 C 4.28125 -34.945312 5.363281 -35.40625 6.625 -35.40625 L 13 -35.40625 C 14.25 -35.40625 15.320312 -34.9375 16.21875 -34 C 17.125 -33.070312 17.578125 -31.929688 17.578125 -30.578125 L 17.578125 -29.046875 L 11.96875 -26.234375 L 11.96875 -30.0625 L 7.640625 -30.0625 L 7.640625 -20.640625 L 17.578125 -25.734375 L 17.578125 -4.84375 C 17.578125 -3.519531 17.125 -2.378906 16.21875 -1.421875 C 15.320312 -0.472656 14.25 0 13 0 L 6.625 0 C 5.363281 0 4.28125 -0.460938 3.375 -1.390625 C 2.476562 -2.328125 2.03125 -3.476562 2.03125 -4.84375 L 2.03125 -8.15625 L 7.640625 -10.953125 L 7.640625 -5.34375 L 11.96875 -5.34375 L 11.96875 -16.5625 L 2.03125 -11.46875 Z M 2.03125 -30.578125 "/></g></g></g><g fill="#1b1727" fill-opacity="1"><g transform="translate(126.234165, 200.624987)"><g><path d="M 6.375 0 L 6.375 -30.0625 L 0.765625 -30.0625 L 0.765625 -35.40625 L 17.578125 -35.40625 L 17.578125 -30.0625 L 11.96875 -30.0625 L 11.96875 0 Z M 6.375 0 "/></g></g></g><g fill="#1b1727" fill-opacity="1"><g transform="translate(144.577315, 200.624987)"><g><path d="M 15.546875 -30.0625 L 7.640625 -30.0625 L 7.640625 -20.53125 L 15.546875 -24.609375 L 15.546875 -18.34375 L 7.640625 -14.265625 L 7.640625 -5.34375 L 15.546875 -5.34375 L 15.546875 0 L 2.03125 0 L 2.03125 -30.578125 C 2.03125 -31.929688 2.476562 -33.070312 3.375 -34 C 4.28125 -34.9375 5.363281 -35.40625 6.625 -35.40625 L 15.546875 -35.40625 Z M 15.546875 -30.0625 "/></g></g></g><g fill="#1b1727" fill-opacity="1"><g transform="translate(161.646634, 200.624987)"><g><path d="M 11.96875 -9.6875 L 17.578125 -12.484375 L 17.578125 -4.84375 C 17.578125 -3.476562 17.125 -2.328125 16.21875 -1.390625 C 15.320312 -0.460938 14.25 0 13 0 L 6.625 0 C 5.363281 0 4.28125 -0.472656 3.375 -1.421875 C 2.476562 -2.378906 2.03125 -3.519531 2.03125 -4.84375 L 2.03125 -30.578125 C 2.03125 -31.929688 2.476562 -33.070312 3.375 -34 C 4.28125 -34.9375 5.363281 -35.40625 6.625 -35.40625 L 13 -35.40625 C 14.25 -35.40625 15.320312 -34.9375 16.21875 -34 C 17.125 -33.070312 17.578125 -31.929688 17.578125 -30.578125 L 17.578125 -27.515625 L 11.96875 -24.71875 L 11.96875 -30.0625 L 7.640625 -30.0625 L 7.640625 -5.34375 L 11.96875 -5.34375 Z M 11.96875 -9.6875 "/></g></g></g><g fill="#1b1727" fill-opacity="1"><g transform="translate(180.754089, 200.624987)"><g><path d="M 11.96875 -9.6875 L 17.578125 -12.484375 L 17.578125 -4.84375 C 17.578125 -3.476562 17.125 -2.328125 16.21875 -1.390625 C 15.320312 -0.460938 14.25 0 13 0 L 6.625 0 C 5.363281 0 4.28125 -0.472656 3.375 -1.421875 C 2.476562 -2.378906 2.03125 -3.519531 2.03125 -4.84375 L 2.03125 -30.578125 C 2.03125 -31.929688 2.476562 -33.070312 3.375 -34 C 4.28125 -34.9375 5.363281 -35.40625 6.625 -35.40625 L 13 -35.40625 C 14.25 -35.40625 15.320312 -34.9375 16.21875 -34 C 17.125 -33.070312 17.578125 -31.929688 17.578125 -30.578125 L 17.578125 -27.515625 L 11.96875 -24.71875 L 11.96875 -30.0625 L 7.640625 -30.0625 L 7.640625 -5.34375 L 11.96875 -5.34375 Z M 11.96875 -9.6875 "/></g></g></g><g fill="#1b1727" fill-opacity="1"><g transform="translate(199.861544, 200.624987)"><g><path d="M 11.96875 -16.359375 L 7.640625 -14.0625 L 7.640625 0 L 2.03125 0 L 2.03125 -35.40625 L 7.640625 -35.40625 L 7.640625 -20.328125 L 11.96875 -22.625 L 11.96875 -35.40625 L 17.578125 -35.40625 L 17.578125 0 L 11.96875 0 Z M 11.96875 -16.359375 "/></g></g></g><g fill="#1b1727" fill-opacity="1"><g transform="translate(219.478524, 200.624987)"><g><path d="M 2.03125 0 L 2.03125 -35.40625 L 7.640625 -35.40625 L 7.640625 0 Z M 2.03125 0 "/></g></g></g><g fill="#1b1727" fill-opacity="1"><g transform="translate(229.15963, 200.624987)"><g><path d="M 7.640625 0 L 2.03125 0 L 2.03125 -35.40625 L 7.640625 -35.40625 L 7.640625 -32.8125 C 7.847656 -33.25 8.117188 -33.65625 8.453125 -34.03125 C 9.367188 -34.945312 10.457031 -35.40625 11.71875 -35.40625 L 13 -35.40625 C 14.25 -35.40625 15.320312 -34.9375 16.21875 -34 C 17.125 -33.070312 17.578125 -31.929688 17.578125 -30.578125 L 17.578125 0 L 11.96875 0 L 11.96875 -30.0625 L 7.640625 -30.0625 Z M 7.640625 0 "/></g></g></g><g fill="#1b1727" fill-opacity="1"><g transform="translate(248.77661, 200.624987)"><g><path d="M 17.578125 -30.578125 L 17.578125 -4.84375 C 17.578125 -3.476562 17.125 -2.328125 16.21875 -1.390625 C 15.320312 -0.460938 14.25 0 13 0 L 6.625 0 C 5.363281 0 4.28125 -0.472656 3.375 -1.421875 C 2.476562 -2.378906 2.03125 -3.519531 2.03125 -4.84375 L 2.03125 -30.578125 C 2.03125 -31.929688 2.476562 -33.070312 3.375 -34 C 4.28125 -34.9375 5.363281 -35.40625 6.625 -35.40625 L 13 -35.40625 C 14.25 -35.40625 15.320312 -34.9375 16.21875 -34 C 17.125 -33.070312 17.578125 -31.929688 17.578125 -30.578125 Z M 11.96875 -5.34375 L 11.96875 -30.0625 L 7.640625 -30.0625 L 7.640625 -5.34375 Z M 11.96875 -5.34375 "/></g></g></g><g clip-path="url(#e5679a4c4d)"><path fill="#000000" d="M 110.058594 209.746094 C 106.230469 209.160156 102.402344 208.585938 98.582031 207.96875 C 97.464844 207.789062 96.371094 207.441406 95.273438 207.167969 C 95.28125 207.058594 95.289062 206.953125 95.292969 206.84375 C 95.945312 206.644531 96.582031 206.351562 97.246094 206.25 C 101.367188 205.589844 105.503906 205.035156 109.613281 204.304688 C 114.945312 203.355469 120.308594 203.339844 125.695312 203.355469 C 169.101562 203.476562 212.511719 203.59375 255.917969 203.664062 C 259.859375 203.671875 263.738281 204.152344 267.605469 204.78125 C 270.878906 205.3125 274.152344 205.863281 277.429688 206.386719 C 277.925781 206.464844 278.433594 206.429688 278.933594 206.464844 C 279.367188 206.492188 279.714844 206.636719 279.769531 207.214844 C 279.578125 207.304688 279.414062 207.421875 279.234375 207.441406 C 274.414062 208.179688 269.589844 208.890625 264.773438 209.648438 C 261.886719 210.105469 258.988281 210.332031 256.066406 210.339844 C 227.046875 210.402344 198.019531 210.492188 169 210.566406 C 153.511719 210.609375 138.015625 210.601562 122.527344 210.691406 C 118.332031 210.710938 114.191406 210.378906 110.058594 209.746094 Z M 110.058594 209.746094 " fill-opacity="1" fill-rule="nonzero"/></g><path fill="#d68d55" d="M 257.929688 209.222656 C 212.269531 209.117188 166.609375 209 120.949219 208.90625 C 118.988281 208.898438 117.03125 209.125 115.078125 209.097656 C 113.886719 209.085938 112.695312 208.816406 111.503906 208.636719 C 108.65625 208.214844 105.816406 207.78125 102.976562 207.347656 L 272.367188 207.347656 C 271.636719 207.457031 270.910156 207.566406 270.179688 207.675781 C 266.949219 208.160156 263.714844 208.65625 260.484375 209.105469 C 259.644531 209.214844 258.785156 209.222656 257.929688 209.222656 Z M 257.929688 209.222656 " fill-opacity="1" fill-rule="nonzero"/><path fill="#ec9b5e" d="M 272.367188 207.347656 L 102.972656 207.347656 C 102.882812 207.332031 102.796875 207.320312 102.699219 207.304688 C 102.320312 207.242188 101.957031 207.097656 101.351562 206.925781 C 105.683594 206.242188 109.746094 205.589844 113.820312 204.96875 C 114.410156 204.878906 115.019531 204.917969 115.621094 204.933594 C 117.679688 204.996094 119.742188 205.132812 121.800781 205.132812 C 165.800781 205.035156 209.804688 204.933594 253.804688 204.808594 C 257.328125 204.800781 260.824219 204.800781 264.3125 205.476562 C 267.464844 206.085938 270.675781 206.394531 273.859375 206.835938 C 273.867188 206.925781 273.867188 207.023438 273.871094 207.113281 C 273.371094 207.195312 272.871094 207.269531 272.367188 207.347656 Z M 272.367188 207.347656 " fill-opacity="1" fill-rule="nonzero"/></svg>